# xmcd
#
# Track frame offsets:
#	150
#	16160
#	32982
#	49960
#	64392
#	81175
#	96825
#	113770
#	125842
#	141500
#
# Disc length: 2111 seconds
#
# Revision: 0
# Processed by: cddbd v1.5.2PL0 Copyright (c) Steve Scherf et al.
# Submitted via: audiograbber 1.83.01
#
DISCID=92083d0a
DTITLE=Erica Ray - Homegrown
DYEAR=2007
DGENRE=Country
TTITLE0=Baby it's Over
TTITLE1=All I Want is You Back Again
TTITLE2=Livin' Out Loud
TTITLE3=I'm a Little Country Inside
TTITLE4=Broken Things
TTITLE5=Own My Own
TTITLE6=Touched by an Angel
TTITLE7=Home Grown
TTITLE8=Why Try
TTITLE9=Broken Things
EXTD=
EXTT0=
EXTT1=
EXTT2=
EXTT3=
EXTT4=
EXTT5=
EXTT6=
EXTT7=
EXTT8=
EXTT9=
PLAYORDER=
